<svg width="32" height="32" viewBox="0 0 32 32" fill="none" xmlns="http://www.w3.org/2000/svg">
  <!-- Background circle -->
  <circle cx="16" cy="16" r="16" fill="url(#gradient)"/>
  
  <!-- Rocket icon -->
  <g transform="translate(16, 16) rotate(45) translate(-16, -16)">
    <!-- Rocket body -->
    <path d="M16 7C16 7 13 9 13 14L13 20C13 21.1 13.9 22 15 22L17 22C18.1 22 19 21.1 19 20L19 14C19 9 16 7 16 7Z" fill="white" fill-opacity="0.95"/>
    
    <!-- Rocket window -->
    <circle cx="16" cy="13" r="2" fill="url(#gradient)" opacity="0.8"/>
    
    <!-- Rocket fins -->
    <path d="M13 16L10 19C9.5 19.5 9.5 20 10 20.5C10.5 21 11 21 11.5 20.5L13 18L13 16Z" fill="white" fill-opacity="0.85"/>
    <path d="M19 16L22 19C22.5 19.5 22.5 20 22 20.5C21.5 21 21 21 20.5 20.5L19 18L19 16Z" fill="white" fill-opacity="0.85"/>
    
    <!-- Rocket flame -->
    <path d="M14 22L16 26L18 22L14 22Z" fill="#FCA5A5" opacity="0.9"/>
    <path d="M15 22L16 24L17 22L15 22Z" fill="#FBBF24" opacity="0.9"/>
  </g>
  
  <!-- Gradient definitions -->
  <defs>
    <linearGradient id="gradient" x1="0" y1="0" x2="32" y2="32">
      <stop offset="0%" stop-color="#6366F1"/>
      <stop offset="100%" stop-color="#8B5CF6"/>
    </linearGradient>
  </defs>
</svg> 